<svg xmlns="http://www.w3.org/2000/svg" width="60.25" height="52.219" viewBox="0 0 60.25 52.219"><defs><style>.cls-1{fill-rule:evenodd;filter:url(#filter)}</style><filter id="filter" x=".969" y=".844" width="60.25" height="52.219" filterUnits="userSpaceOnUse"><feFlood result="flood" flood-color="#fff"/><feComposite result="composite" operator="in" in2="SourceGraphic"/><feBlend result="blend" in2="SourceGraphic"/></filter></defs><path id="icon" class="cls-1" d="M60.762 17.236L26.629.93a.8.8 0 0 0-1.064.369l-7.429 15.548h4.048l5.453-11.424 29.591 14.136-9.253 19.369-5.21-2.488v10.239l3.2 1.529a.8.8 0 0 0 1.064-.376l14.109-29.538a.789.789 0 0 0-.376-1.058zm-21.167 1.489H1.766a.8.8 0 0 0-.8.793v32.738a.8.8 0 0 0 .8.8h37.827a.8.8 0 0 0 .8-.8V19.518a.8.8 0 0 0-.798-.793zm-2.184 25.088h-2.4c-1.4-3.581-3.115-8.594-5.723-7.924-3.058.781-4.585 7.924-4.585 7.924s-1.565-8.061-5.88-12.377-8.5 12.377-8.5 12.377H4.617V22.345h32.794v21.468zM9.91 24.276a2.676 2.676 0 1 1-2.677 2.675 2.674 2.674 0 0 1 2.677-2.675zm17.951 4.565a8.659 8.659 0 0 0 1.662-.162 5.373 5.373 0 0 0 2.062.4c1.975 0 3.572-.964 3.572-2.154s-1.6-2.151-3.572-2.151a5.271 5.271 0 0 0-2 .37 1.281 1.281 0 0 0-.9-.37h-.512a1.272 1.272 0 0 0-1.259 1.142c-1.6.167-2.784.746-2.784 1.435 0 .822 1.67 1.491 3.731 1.491z" transform="translate(-.969 -.844)"/></svg>